<?xml version="1.0" standalone="no"?>
<!DOCTYPE svg PUBLIC "-//W3C//DTD SVG 20010904//EN"
 "http://www.w3.org/TR/2001/REC-SVG-20010904/DTD/svg10.dtd">
<svg version="1.0" xmlns="http://www.w3.org/2000/svg"
 width="425.000000pt" height="213.000000pt" viewBox="0 0 425.000000 213.000000"
 preserveAspectRatio="xMidYMid meet">
<metadata>
Created by potrace 1.16, written by Peter Selinger 2001-2019
</metadata>
<g transform="translate(0.000000,213.000000) scale(0.100000,-0.100000)"
fill="#000000" stroke="none">
<path d="M3594 2086 c-89 -39 -146 -126 -147 -221 0 -115 62 -200 172 -232
179 -52 346 77 328 253 -14 134 -108 214 -252 213 -38 0 -84 -6 -101 -13z"/>
<path d="M1660 1659 l0 -291 -22 16 c-174 128 -425 103 -582 -56 -133 -136
-198 -350 -182 -593 27 -390 178 -585 457 -586 137 -1 215 28 306 113 57 55
57 55 68 -24 l6 -48 200 0 199 0 0 860 c0 681 -3 860 -12 860 -7 0 -100 9
-207 20 -107 11 -203 20 -213 20 -17 0 -18 -17 -18 -291z m-46 -546 l41 -29 3
-253 2 -254 -26 -34 c-39 -51 -81 -73 -141 -73 -64 0 -103 29 -130 98 -15 39
-18 77 -18 222 0 192 9 239 52 291 65 77 138 88 217 32z"/>
<path d="M2873 1456 c-74 -18 -152 -59 -200 -106 -48 -46 -63 -50 -63 -16 0
13 -3 38 -6 55 l-6 31 -199 0 -199 0 0 -710 0 -710 225 0 225 0 0 130 c0 72 3
130 6 130 4 0 22 -14 42 -31 100 -88 281 -108 416 -46 80 37 139 89 194 171
90 135 129 308 119 526 -17 341 -142 537 -371 579 -74 14 -116 13 -183 -3z
m23 -337 c56 -46 86 -234 66 -409 -7 -55 -18 -115 -25 -133 -50 -118 -167
-149 -254 -65 l-33 32 0 245 0 244 26 34 c31 41 64 63 107 72 37 8 91 -1 113
-20z"/>
<path d="M3470 805 l0 -615 225 0 225 0 0 615 0 615 -225 0 -225 0 0 -615z"/>
<path d="M4079 587 c-111 -59 -158 -201 -103 -310 48 -94 125 -135 247 -128
l27 1 0 230 0 230 -63 0 c-48 0 -75 -6 -108 -23z"/>
</g>
</svg>
